<svg xmlns="http://www.w3.org/2000/svg" enable-background="new 0 0 512 512" viewBox="0 0 512 512"><path d="M496,45.546H16c-8.82,0-16,7.176-16,16v384c0,8.824,7.18,16,16,16h480c8.82,0,16-7.176,16-16v-384
		C512,52.722,504.82,45.546,496,45.546z M496,349.546H320v-16h176V349.546z M192,222.201v63.345H88
		c0-10.594-4.141-20.629-11.742-28.34c-7.633-7.52-17.672-11.66-28.258-11.66v-112c10.586,0,20.625-4.141,28.336-11.742
		C83.859,114.175,88,104.14,88,93.546h104v63.345c-5.176,10.007-8,21.212-8,32.655S186.824,212.194,192,222.201z M320,156.891
		V93.546h104c0,10.594,4.141,20.629,11.742,28.34c7.633,7.52,17.672,11.66,28.258,11.66v112c-10.586,0-20.625,4.141-28.336,11.742
		C428.141,264.917,424,274.952,424,285.546H320v-63.345c5.176-10.007,8-21.212,8-32.655S325.176,166.897,320,156.891z M304,317.536
		l-96-0.004V61.546h96V317.536z M16,333.546h176v16H16V333.546z M16,429.546h160c4.422,0,8-3.582,8-8s-3.578-8-8-8H16v-16h136
		c4.422,0,8-3.582,8-8s-3.578-8-8-8H16v-16h176v80H16V429.546z M320,445.546v-16h160c4.422,0,8-3.582,8-8s-3.578-8-8-8H320v-16h136
		c4.422,0,8-3.582,8-8s-3.578-8-8-8H320v-16h176v80H320z"/><circle cx="128" cy="189.546" r="24"/><circle cx="384" cy="189.546" r="24"/></svg>